<svg xmlns="http://www.w3.org/2000/svg" viewBox="0 0 45 45"><defs><style>.cls-1{fill:#4c4c4c;}</style></defs><title>Asset 7</title><g id="Layer_2" data-name="Layer 2"><g id="index-page"><path class="cls-1" d="M22.5,27.4a4.9,4.9,0,1,0-4.9-5A5,5,0,0,0,22.5,27.4Z"/><path class="cls-1" d="M28.7,27.2a7.48,7.48,0,0,1-6,3.1,7.15,7.15,0,0,1-5.4-2,7.71,7.71,0,0,1-2.4-7.7H12.7V31.2a1,1,0,0,0,1.1,1H31.1a1,1,0,0,0,1.1-1.1V20.5H30A7.6,7.6,0,0,1,28.7,27.2Z"/><path class="cls-1" d="M28.4,17.6h2.9a.94.94,0,0,0,1-1V13.8a.94.94,0,0,0-1-1H28.5a.94.94,0,0,0-1,1v2.9C27.4,17.2,27.8,17.6,28.4,17.6Z"/><path class="cls-1" d="M40.4,0H4.6A4.65,4.65,0,0,0,0,4.6V40.4A4.65,4.65,0,0,0,4.6,45H40.4A4.65,4.65,0,0,0,45,40.4V4.6A4.65,4.65,0,0,0,40.4,0ZM35.1,32.6c0,.1,0,.1-.1.2a2.76,2.76,0,0,1-2.3,2.3.37.37,0,0,0-.3.1H12.2A3,3,0,0,1,9.8,33a.37.37,0,0,0-.1-.3V12.4a2.89,2.89,0,0,1,2.2-2.3c.1,0,.2-.1.3-.1H32.4a2.89,2.89,0,0,1,2.3,2.2c0,.1.1.2.1.3C35.1,19.1,35.1,25.9,35.1,32.6Z"/></g></g></svg>