<svg xmlns="http://www.w3.org/2000/svg" viewBox="0 0 2499.38 776"><defs><style>.cls-1{fill:#6c3c97;}</style></defs><title>Asset 1</title><g id="Layer_2" data-name="Layer 2"><g id="Layer_1-2" data-name="Layer 1"><path class="cls-1" d="M393.65,255.16c0-71-57.12-128.18-127-128.18h-63V382.21h63c69.85,0,127-57.22,127-127.05M680.08,764H448.93L265.43,509.31H203.71V763.43H0V0H291.82C460.05,0,597.37,114.4,597.37,255.16c0,85.84-52.64,162.52-132.76,209.44L680.08,764"/><path class="cls-1" d="M909.81,301c-53.8,0-99.56,73.12-99.56,163.64S856,628.34,909.81,628.34c55,0,100.73-73.22,100.73-163.73S964.85,301,909.81,301m313.55,163.64c0,172.92-140.62,311.39-313.55,311.39S597.36,637.53,597.36,464.61,736.95,153.28,909.81,153.28s313.55,138.54,313.55,311.33m478-298.67L1466.73,400.56V165.16H1263.07V763.42h203.67V520.75l245,242.68h256.35L1656.75,452.07,1914.61,194.3v355C1914.61,667.21,1985.5,776,2164,776c84.75,0,162.52-48.07,200.32-91.56l91.58,79h43.47V165.94H2295.72V552.78c-22.93,40-54.89,65.2-104.28,65.2-50.11,0-73.1-29.71-73.1-124.73V165.94Z"/></g></g></svg>