<svg xmlns="http://www.w3.org/2000/svg" viewBox="0 0 45.1 45"><defs><style>.cls-1{fill:#4c4c4c;}</style></defs><title>Asset 6</title><g id="Layer_2" data-name="Layer 2"><g id="index-page"><path class="cls-1" d="M40.3,0H4.7A4.69,4.69,0,0,0,0,4.7V40.4A4.67,4.67,0,0,0,4.7,45H40.4a4.69,4.69,0,0,0,4.7-4.7V4.7A4.85,4.85,0,0,0,40.3,0ZM33.1,17.1v.7A15.51,15.51,0,0,1,17.5,33.4a15.09,15.09,0,0,1-8.4-2.5c.5,0,.9.1,1.4.1a11.36,11.36,0,0,0,6.8-2.3,5.37,5.37,0,0,1-5.1-3.8,3.4,3.4,0,0,0,1,.1,5.9,5.9,0,0,0,1.4-.2,5.48,5.48,0,0,1-4.4-5.4v-.1a5.2,5.2,0,0,0,2.5.7,5.47,5.47,0,0,1-2.4-4.6,6.81,6.81,0,0,1,.7-2.8,15.41,15.41,0,0,0,11.3,5.7,4.87,4.87,0,0,1-.1-1.2,5.55,5.55,0,0,1,5.5-5.5,5.66,5.66,0,0,1,4,1.7A11.42,11.42,0,0,0,35.2,12a5.18,5.18,0,0,1-2.4,3,8,8,0,0,0,3.1-.9A11.49,11.49,0,0,1,33.1,17.1Z"/></g></g></svg>